<?xml version="1.0" encoding="UTF-8" standalone="no"?>
<svg
   viewBox="0 0 500 500"
   overflow="hidden"
   preserveAspectRatio="xMidYMid meet"
   id="eaf-16252-0"
   version="1.1"
   sodipodi:docname="orange-yt-dlp.svg"
   xml:space="preserve"
   inkscape:version="1.4.2 (f4327f4, 2025-05-13)"
   xmlns:inkscape="http://www.inkscape.org/namespaces/inkscape"
   xmlns:sodipodi="http://sodipodi.sourceforge.net/DTD/sodipodi-0.dtd"
   xmlns="http://www.w3.org/2000/svg"
   xmlns:svg="http://www.w3.org/2000/svg"><sodipodi:namedview
     id="namedview5"
     pagecolor="#ffffff"
     bordercolor="#666666"
     borderopacity="1.0"
     inkscape:showpageshadow="2"
     inkscape:pageopacity="0.0"
     inkscape:pagecheckerboard="0"
     inkscape:deskcolor="#d1d1d1"
     inkscape:zoom="0.51972348"
     inkscape:cx="465.63222"
     inkscape:cy="202.99256"
     inkscape:window-width="1680"
     inkscape:window-height="979"
     inkscape:window-x="-8"
     inkscape:window-y="-8"
     inkscape:window-maximized="1"
     inkscape:current-layer="eaf-16252-0" /><defs
     id="defs1"><clipPath
       id="eaf-16252-1"><rect
         x="0"
         y="0"
         width="500"
         height="500"
         id="rect1" /></clipPath><style
       id="style1">#eaf-16252-0 * {animation: 6000ms linear infinite normal both running;offset-rotate:0deg}@keyframes eaf-16252-2{0%,100%{transform:none;offset-path:path(&quot;m50.7199 -47.9451l154.6036 241.5528&quot;)}}@keyframes eaf-16252-3{0%{offset-distance:0%;animation-timing-function:cubic-bezier(0,0,0.58,1)}16.67%,100%{offset-distance:100%}}@keyframes eaf-16252-4{0%,100%{transform:translate(-205.3235px,-193.6078px)}}@keyframes eaf-16252-5{0%,100%{transform:none;offset-path:path(&quot;m449.52 549.6084l-140.8435 -255.2168&quot;)}}@keyframes eaf-16252-6{0%,100%{transform:translate(-308.6765px,-294.3916px)}}@keyframes eaf-16252-7{0%,100%{transform:none;offset-path:path(&quot;m257 244l0 0l449 0&quot;)}}@keyframes eaf-16252-8{0%{offset-distance:0%}60%{offset-distance:0%;animation-timing-function:ease-in}90.55%,100%{offset-distance:100%}}@keyframes eaf-16252-9{0%{transform:rotate(0)}60%{transform:rotate(0);animation-timing-function:ease-in}90.55%,100%{transform:rotate(90deg)}}@keyframes eaf-16252-10{0%,100%{transform:translate(-257px,-244px)}}</style></defs><g
     clip-path="url('#eaf-16252-1')"
     style="isolation: isolate;"
     id="g5"><g
       id="g4"><g
         transform="matrix(4 0 0 4 -827.28 -2254.5264)"
         id="g1"><path
           fill="#f3582c"
           d="m331.7 626.3c0 15.6 0 31.3 0 46.9c0 7.2 -5.4 13.7 -12.5 15.1c-1 0.2 -2.1 0.3 -3.2 0.3c-31.2 0 -62.4 0 -93.6 0c-7.6 0 -14.3 -5.9 -15.3 -13.5c-0.1 -0.7 -0.1 -1.4 -0.1 -2c0 -31.3 0 -62.5 0 -93.8c0 -7.2 5.4 -13.7 12.5 -15.1c1 -0.2 2.1 -0.3 3.2 -0.3c31.2 0 62.4 0 93.6 0c7.2 0 13.7 5.4 15.1 12.5c0.2 1 0.3 2.1 0.3 3.2c0 15.6 0 31.1 0 46.7z"
           id="path1" /></g><g
         style="animation-name: eaf-16252-7, eaf-16252-8, eaf-16252-9, eaf-16252-10; animation-composition: replace, add, add, add;"
         id="g3"><path
           fill="#000000"
           d="m255.6 45c-101.5 0 -95.2 44 -95.2 44l0.1 45.6l96.9 0l0 13.7l-135.4 0c0 0 -65 -7.4 -65 95.1c0 102.4 56.7 98.8 56.7 98.8l33.9 0l0 -47.6c0 0 -1.8 -56.7 55.8 -56.7l96.1 0c0 0 54 0.9 54 -52.2l0 -87.6c0 0 8.2 -53.1 -97.9 -53.1zm-53.5 30.7c9.6 0 17.4 7.8 17.4 17.4c0 9.6 -7.8 17.4 -17.4 17.4c-9.6 0 -17.4 -7.8 -17.4 -17.4c0 0 0 0 0 -0.1c0 -9.5 7.8 -17.3 17.4 -17.3z"
           transform="translate(-154.6036 -241.5528)"
           style="animation-name: eaf-16252-2, eaf-16252-3, eaf-16252-4; animation-composition: replace, add, add;"
           id="path2" /><path
           fill="#ffffff"
           stroke="#000000"
           stroke-width="10"
           stroke-miterlimit="133.3333"
           d="m258.4 443c101.5 0 95.2 -44 95.2 -44l-0.1 -45.6l-96.9 0l0 -13.7l135.4 0c0 0 65 7.4 65 -95.1c0 -102.5 -56.7 -98.8 -56.7 -98.8l-33.9 0l0 47.5c0 0 1.8 56.7 -55.8 56.7l-96.1 0c0 0 -54 -0.9 -54 52.2l0 87.7c0 0 -8.2 53.1 97.9 53.1zm53.5 -30.7c-9.6 0 -17.4 -7.8 -17.4 -17.4c0 0 0 0 0 -0.1c0 -9.6 7.8 -17.4 17.4 -17.4c9.6 0 17.4 7.8 17.4 17.4c0 9.7 -7.8 17.5 -17.4 17.5z"
           transform="translate(140.8435 255.2168)"
           style="animation-name: eaf-16252-5, eaf-16252-3, eaf-16252-6; animation-composition: replace, add, add;"
           id="path3" /></g></g></g><g
     id="g33"
     transform="matrix(0.35233481,0,0,0.35233481,9.8129363,417.27794)"><g
       id="g29"
       transform="translate(380.97182,32.709694)"><path
         style="fill:#f90000"
         d="m 569.97884,-260.1151 c 0,-3.10761 64.85761,-396.70859 65.55585,-397.83836 l 0.56219,-0.90964 h 38.97237 38.97236 l 0.58459,1.5234 c 0.32152,0.83787 -0.22431,6.68116 -1.21296,12.9851 -0.98864,6.30393 -1.51487,11.74436 -1.1694,12.08983 0.34547,0.34547 3.6424,-2.35663 7.32652,-6.00467 12.23291,-12.11313 26.08083,-19.76028 41.90848,-23.14289 l 8,-1.70972 13,-0.004 13,-0.004 7.81396,2.10908 c 4.29767,1.15999 10.59767,3.57253 14,5.36118 l 6.18604,3.2521 6.07126,6.02246 6.07125,6.02245 4.12098,7 c 5.02004,8.52717 8.64291,19.09967 10.82796,31.59884 l 1.64347,9.40116 0.004,14.5 c 0.002,7.975 -0.51996,19.225 -1.16055,25 -1.84679,16.64884 -14.88333,92.53007 -17.6956,103 -13.66661,50.88009 -44.5231,79.9537 -90.18992,84.97876 l -10.00469,1.10089 -8.57027,-1.06498 c -4.71366,-0.58574 -11.461,-1.95783 -14.9941,-3.0491 l -6.42382,-1.98411 -6.2058,-4.14408 -6.20581,-4.14407 -4.44047,-5.59666 c -2.44226,-3.07815 -6.04511,-8.89872 -8.00633,-12.93458 l -3.56586,-7.33793 -0.78751,0.83793 c -0.43313,0.46086 -6.0397,32.56293 -12.45904,71.33793 -6.41934,38.775 -11.89486,71.2875 -12.16781,72.25 l -0.49628,1.75 h -39.43261 -39.43262 z m 151.13107,-172.18825 c 17.06177,-3.61642 28.22398,-14.20634 34.49332,-32.72482 l 2.4832,-7.33493 6.52362,-40 6.52363,-40 0.0469,-10 0.0469,-10 -2.22682,-5.83196 c -2.88907,-7.56638 -6.81428,-11.92772 -13.84018,-15.37795 l -5.68161,-2.79009 -8.5,0.0635 -8.5,0.0635 -6.76355,2.27258 -6.76356,2.27257 -5.55375,5.07583 -5.55376,5.07582 -2.84728,5.64041 c -4.39449,8.70545 -5.44481,13.55581 -12.56732,58.03586 l -6.64532,41.5 0.48111,11.5 0.48112,11.5 1.61698,5.12232 1.61698,5.12232 3.74918,4.20596 3.74917,4.20596 5.5,1.88908 c 6.61566,2.27226 9.45634,2.35281 18.13107,0.51411 z m -549.13107,67.46039 c -8.20665,-1.07079 -16.69109,-3.77599 -24.24151,-7.72924 l -6.74152,-3.52972 -6.48128,-6.87049 -6.48127,-6.87049 -4.47109,-9.2601 c -9.14756,-18.94553 -12.51759,-43.69372 -9.56751,-70.2601 0.95697,-8.61778 6.27031,-42.11154 13.51034,-85.16535 l 3.39106,-20.16535 4.08471,-12.55541 c 5.00618,-15.38776 10.30866,-26.1685 17.88117,-36.35508 14.02813,-18.87072 31.92768,-30.67206 56.06633,-36.96503 l 9.55057,-2.48985 13,-0.0361 13,-0.0361 7.82453,2.11231 c 10.61542,2.86574 17.0346,6.51626 24.16745,13.74377 l 6.00802,6.08776 4.36518,8.24707 4.36517,8.24706 0.74009,-0.83482 c 0.40705,-0.45916 6.02384,-32.78483 12.48176,-71.83483 6.45792,-39.05 11.94961,-71.3375 12.20375,-71.75 0.25415,-0.4125 17.95897,-0.75 39.34405,-0.75 h 38.88197 l 0.57737,0.9342 c 0.51245,0.82917 -63.68913,393.96282 -65.04787,398.3158 l -0.54624,1.75 h -39.32563 -39.32562 l -0.48692,-1.2689 c -0.26781,-0.6979 0.40504,-6.5769 1.49523,-13.06444 1.09019,-6.48755 1.72171,-12.056 1.40337,-12.37433 -0.31833,-0.31834 -3.68583,2.35223 -7.48333,5.93459 -15.78352,14.88939 -31.79736,22.27527 -53.64233,24.74086 -9.86617,1.11357 -12.31869,1.11984 -20.5,0.0524 z m 62.2804,-67.49163 c 13.0514,-2.7656 22.23675,-9.99822 27.80248,-21.89192 l 2.91192,-6.22262 7.0605,-40.95698 7.06051,-40.95699 0.58481,-12.18589 0.58482,-12.18589 -1.23567,-6.28078 c -2.52012,-12.80951 -7.89274,-19.57394 -17.86627,-22.49459 l -5.6835,-1.66436 -7.82232,1.1287 -7.82232,1.12869 -6.38756,3.14459 -6.38756,3.14459 -5.415,5.67706 c -10.51282,11.0216 -11.15179,13.13322 -20.30039,67.08788 l -7.54547,44.5 0.47874,8.5 0.47873,8.5 2.10514,5.54077 2.10515,5.54077 3.75643,3.59905 c 8.28946,7.94214 18.02636,10.21079 31.53683,7.34792 z m 135.39127,62.80982 c -0.36942,-0.36941 -0.67167,-15.17352 -0.67167,-32.89801 v -32.22634 l 1.58179,-0.60699 c 0.86998,-0.33384 15.24343,-0.60699 31.94098,-0.60699 h 30.3592 l 0.63304,-1.02427 c 0.80691,-1.30562 43.45398,-259.53781 43.47175,-263.22573 l 0.0132,-2.75 h -21.91821 c -12.05502,0 -22.63002,-0.27314 -23.5,-0.60699 l -1.58179,-0.60699 v -32.89301 -32.89301 h 68.94099 68.94098 l 0.57303,0.92719 c 0.31517,0.50996 -11.80827,75.20488 -26.94098,165.98872 -15.13271,90.78384 -27.51402,165.5166 -27.51402,166.07281 v 1.01128 h 22.30887 22.30887 l 1.70654,1.25 1.70654,1.25 -0.26541,32 -0.26541,32 -95.57833,0.255 c -52.56809,0.14025 -95.88059,-0.0473 -96.25,-0.41667 z"
         id="path30" /><path
         style="fill:#523737"
         d="m 569.97884,-260.1151 c 0,-3.10761 64.85761,-396.70859 65.55585,-397.83836 l 0.56219,-0.90964 h 38.97237 38.97236 l 0.58459,1.5234 c 0.32152,0.83787 -0.22431,6.68116 -1.21296,12.9851 -0.98864,6.30393 -1.51487,11.74436 -1.1694,12.08983 0.34547,0.34547 3.6424,-2.35663 7.32652,-6.00467 12.23291,-12.11313 26.08083,-19.76028 41.90848,-23.14289 l 8,-1.70972 13,-0.004 13,-0.004 7.81396,2.10908 c 4.29767,1.15999 10.59767,3.57253 14,5.36118 l 6.18604,3.2521 6.07126,6.02246 6.07125,6.02245 4.12098,7 c 5.02004,8.52717 8.64291,19.09967 10.82796,31.59884 l 1.64347,9.40116 0.004,14.5 c 0.002,7.975 -0.51996,19.225 -1.16055,25 -1.84679,16.64884 -14.88333,92.53007 -17.6956,103 -13.66661,50.88009 -44.5231,79.9537 -90.18992,84.97876 l -10.00469,1.10089 -8.57027,-1.06498 c -4.71366,-0.58574 -11.461,-1.95783 -14.9941,-3.0491 l -6.42382,-1.98411 -6.2058,-4.14408 -6.20581,-4.14407 -4.44047,-5.59666 c -2.44226,-3.07815 -6.04511,-8.89872 -8.00633,-12.93458 l -3.56586,-7.33793 -0.78751,0.83793 c -0.43313,0.46086 -6.0397,32.56293 -12.45904,71.33793 -6.41934,38.775 -11.89486,71.2875 -12.16781,72.25 l -0.49628,1.75 h -39.43261 -39.43262 z m 88.5,-79.67324 13,-77.42525 1.09992,-0.35806 c 1.614,-0.52541 2.91906,1.53103 4.89202,7.70855 0.96611,3.025 3.60518,9.09203 5.86459,13.48228 l 4.10803,7.98228 5.62372,5.62372 5.62372,5.62372 5.41145,2.64757 c 2.97629,1.45617 8.55359,3.31315 12.394,4.12664 l 6.98255,1.47906 10.16204,0.0174 10.16203,0.0174 7.33797,-1.405 c 41.17482,-7.88372 68.16749,-37.39761 79.65493,-87.095 2.66826,-11.54352 14.74709,-83.96624 16.12961,-96.71058 0.57938,-5.34083 1.05342,-16.20362 1.05342,-24.13954 v -14.42894 l -1.54527,-8.36047 c -3.19396,-17.28039 -8.98461,-30.56785 -17.47076,-40.08909 -6.04859,-6.78637 -12.41115,-10.9598 -22.08584,-14.48688 l -7.39813,-2.69713 -17,-0.0427 -17,-0.0427 -6.5,1.77011 c -3.575,0.97356 -10.1,3.48949 -14.5,5.59096 -12.17746,5.81604 -19.73469,12.32672 -34.30799,29.5569 l -2.308,2.72877 -1.30212,-1.08066 -1.30211,-1.08066 0.36108,-2.24365 c 0.1986,-1.23401 1.26065,-7.69364 2.36012,-14.35474 1.09946,-6.6611 1.99902,-13.2986 1.99902,-14.75 v -2.63891 H 674.9574 639.93597 l -0.94953,2.25 c -1.03051,2.44191 -64.03218,384.79336 -64.01689,388.51279 l 0.009,2.2628 35.25,-0.2628 35.25,-0.26279 z m 42.51759,-89.03242 -5.4824,-1.89236 -4.11258,-4.35272 -4.11258,-4.35271 -2.08792,-5.58047 c -1.14836,-3.06925 -2.60925,-9.35678 -3.24644,-13.97227 l -1.15851,-8.39181 0.63497,-6 c 1.48732,-14.05407 13.73527,-87.5942 15.65348,-93.9879 2.88056,-9.60135 5.2939,-13.99688 10.994,-20.02391 5.9758,-6.31852 12.42201,-9.93646 21.49665,-12.065 l 6.90374,-1.61933 7.00531,0.43218 7.0053,0.43218 6.25649,2.80775 6.2565,2.80775 3.55817,3.93847 c 4.40746,4.87853 7.02337,10.84653 8.51911,19.43567 l 1.15084,6.60862 -0.68999,7.6143 c -1.08502,11.97358 -12.40438,80.79578 -14.65767,89.11922 -1.1167,4.125 -3.46412,10.425 -5.2165,14 l -3.18614,6.5 -6.01045,6 -6.01045,6 -5.49026,2.71834 c -7.20325,3.56648 -16.07774,5.78952 -22.95036,5.74902 l -5.5399,-0.0326 z m 20.11348,-3.48259 c 17.06177,-3.61642 28.22398,-14.20634 34.49332,-32.72482 l 2.4832,-7.33493 6.52362,-40 6.52363,-40 0.0469,-10 0.0469,-10 -2.22682,-5.83196 c -2.88907,-7.56638 -6.81428,-11.92772 -13.84018,-15.37795 l -5.68161,-2.79009 -8.5,0.0635 -8.5,0.0635 -6.76355,2.27258 -6.76356,2.27257 -5.55375,5.07583 -5.55376,5.07582 -2.84728,5.64041 c -4.39449,8.70545 -5.44481,13.55581 -12.56732,58.03586 l -6.64532,41.5 0.48111,11.5 0.48112,11.5 1.61698,5.12232 1.61698,5.12232 3.74918,4.20596 3.74917,4.20596 5.5,1.88908 c 6.61566,2.27226 9.45634,2.35281 18.13107,0.51411 z m -549.13107,67.46039 c -8.20665,-1.07079 -16.69109,-3.77599 -24.24151,-7.72924 l -6.74152,-3.52972 -6.48128,-6.87049 -6.48127,-6.87049 -4.47109,-9.2601 c -9.14756,-18.94553 -12.51759,-43.69372 -9.56751,-70.2601 0.95697,-8.61778 6.27031,-42.11154 13.51034,-85.16535 l 3.39106,-20.16535 4.08471,-12.55541 c 5.00618,-15.38776 10.30866,-26.1685 17.88117,-36.35508 14.02813,-18.87072 31.92768,-30.67206 56.06633,-36.96503 l 9.55057,-2.48985 13,-0.0361 13,-0.0361 7.82453,2.11231 c 10.61542,2.86574 17.0346,6.51626 24.16745,13.74377 l 6.00802,6.08776 4.36518,8.24707 4.36517,8.24706 0.74009,-0.83482 c 0.40705,-0.45916 6.02384,-32.78483 12.48176,-71.83483 6.45792,-39.05 11.94961,-71.3375 12.20375,-71.75 0.25415,-0.4125 17.95897,-0.75 39.34405,-0.75 h 38.88197 l 0.57737,0.9342 c 0.51245,0.82917 -63.68913,393.96282 -65.04787,398.3158 l -0.54624,1.75 h -39.32563 -39.32562 l -0.48692,-1.2689 c -0.26781,-0.6979 0.40504,-6.5769 1.49523,-13.06444 1.09019,-6.48755 1.72171,-12.056 1.40337,-12.37433 -0.31833,-0.31834 -3.68583,2.35223 -7.48333,5.93459 -15.78352,14.88939 -31.79736,22.27527 -53.64233,24.74086 -9.86617,1.11357 -12.31869,1.11984 -20.5,0.0524 z m 28.16204,-5.45484 c 21.37397,-4.179 38.61824,-14.96 52.48825,-32.8153 2.45664,-3.1625 5.11531,-5.75 5.90816,-5.75 h 1.44155 l -0.0235,2.25 c -0.013,1.2375 -1.11795,8.96283 -2.45556,17.16741 -1.3376,8.20457 -2.20045,15.29207 -1.91743,15.75 l 0.51457,0.83259 h 34.88196 34.88197 l 0.56712,-0.91762 c 0.97435,-1.57654 64.58646,-389.51308 64.08695,-390.83238 l -0.47327,-1.25 h -34.55282 -34.55282 l -0.94107,2.25 c -0.51759,1.2375 -6.36785,35.55 -13.00058,76.25 -6.63272,40.7 -12.43614,74.675 -12.89647,75.5 -0.46034,0.825 -1.42702,1.5 -2.14819,1.5 h -1.3112 l -2.14407,-7 c -3.92898,-12.82746 -11.05585,-24.59181 -18.44139,-30.44126 -2.09749,-1.66125 -6.61608,-4.3458 -10.04129,-5.96567 l -6.22767,-2.94522 -7.10953,-1.19918 -7.10954,-1.19918 -12.54306,0.53328 -12.54307,0.53327 -7.5,2.15636 c -38.85084,11.17015 -63.37642,41.09097 -72.97437,89.0276 -3.45046,17.23319 -14.8525,88.84013 -16.09986,101.11013 l -1.15788,11.38987 0.63423,10.75704 c 1.59493,27.05102 8.3742,45.78833 21.32657,58.9448 l 5.61338,5.70183 5.78068,3.08107 c 3.17937,1.69459 9.06491,3.94149 13.07897,4.99311 l 7.29828,1.91203 11.16204,0.0551 11.16203,0.0551 z m 11.92019,-58.70924 -6.41778,-2.03161 -5.58222,-5.66222 -5.58223,-5.66223 -1.86961,-5 -1.86962,-5 -0.46366,-10.5 -0.46366,-10.5 7.07744,-42 7.07744,-42 2.49148,-7.77559 c 5.82278,-18.17215 18.48716,-30.16388 36.26126,-34.33531 l 6.75893,-1.58627 6.5,0.45068 6.5,0.45068 5.14882,2.61348 5.14882,2.61348 3.12149,3.78443 c 1.71681,2.08143 4.0888,6.25942 5.27107,9.28442 l 2.1496,5.5 0.39726,14.5 0.39726,14.5 -7.08148,42 -7.08147,42 -2.09107,6 c -5.58705,16.0312 -17.42283,26.47882 -33.31396,29.40673 -8.54763,1.57489 -15.16722,1.26556 -22.48411,-1.05067 z m 22.19817,-3.32755 c 13.0514,-2.7656 22.23675,-9.99822 27.80248,-21.89192 l 2.91192,-6.22262 7.0605,-40.95698 7.06051,-40.95699 0.58481,-12.18589 0.58482,-12.18589 -1.23567,-6.28078 c -2.52012,-12.80951 -7.89274,-19.57394 -17.86627,-22.49459 l -5.6835,-1.66436 -7.82232,1.1287 -7.82232,1.12869 -6.38756,3.14459 -6.38756,3.14459 -5.415,5.67706 c -10.51282,11.0216 -11.15179,13.13322 -20.30039,67.08788 l -7.54547,44.5 0.47874,8.5 0.47873,8.5 2.10514,5.54077 2.10515,5.54077 3.75643,3.59905 c 8.28946,7.94214 18.02636,10.21079 31.53683,7.34792 z m 135.39127,62.80982 c -0.36942,-0.36941 -0.67167,-15.17352 -0.67167,-32.89801 v -32.22634 l 1.58179,-0.60699 c 0.86998,-0.33384 15.24343,-0.60699 31.94098,-0.60699 h 30.3592 l 0.63304,-1.02427 c 0.80691,-1.30562 43.45398,-259.53781 43.47175,-263.22573 l 0.0132,-2.75 h -21.91821 c -12.05502,0 -22.63002,-0.27314 -23.5,-0.60699 l -1.58179,-0.60699 v -32.89301 -32.89301 h 68.94099 68.94098 l 0.57303,0.92719 c 0.31517,0.50996 -11.80827,75.20488 -26.94098,165.98872 -15.13271,90.78384 -27.51402,165.5166 -27.51402,166.07281 v 1.01128 h 22.30887 22.30887 l 1.70654,1.25 1.70654,1.25 -0.26541,32 -0.26541,32 -95.57833,0.255 c -52.56809,0.14025 -95.88059,-0.0473 -96.25,-0.41667 z m 187.82833,-32.33833 v -28.5 l -23.14263,-0.26816 -23.14263,-0.26817 -1.05184,-1.26739 -1.05184,-1.26739 27.45179,-165.40713 27.45178,-165.40713 -0.81478,-0.81478 -0.81479,-0.81479 -63.94253,0.25747 -63.94253,0.25747 -0.26588,28.43117 -0.26588,28.43117 1.26588,0.80352 c 0.69624,0.44193 11.50338,0.81041 24.01588,0.81883 l 22.75,0.0153 0.0159,2.25 c 0.009,1.2375 -9.94308,62.775 -22.11515,136.75 l -22.13103,134.5 -1.57598,1.25 -1.57598,1.25 h -30.80887 -30.80887 v 28.33334 c 0,15.58333 0.30235,28.63567 0.67187,29.0052 0.36953,0.36953 41.88203,0.55703 92.25,0.41667 l 91.57813,-0.25521 z"
         id="path29" /></g><g
       id="g32"
       transform="translate(-309.78011,202.03051)"><path
         style="fill:#ffffff"
         d="m 535.06517,-481.85704 -1.57143,-1.57143 0.0153,-26.17857 c 0.008,-14.39821 0.37372,-26.74307 0.81177,-27.43302 l 0.79645,-1.25444 109.43823,0.25444 109.43824,0.25445 0.26699,27.5 0.267,27.5 -1.70812,1.25 -1.70813,1.25 H 643.87403 536.63659 Z m -149.9307,-109.98625 c -8.6024,-12.95672 -15.64073,-23.91198 -15.64073,-24.34501 0,-1.57144 4.31523,-4.23926 53.5,-33.07558 27.5,-16.12285 57.61961,-33.81281 66.93247,-39.31103 l 16.93248,-9.99676 -2.00033,-1.60697 c -1.10018,-0.88383 -32.0073,-18.6787 -68.68248,-39.54415 -36.67518,-20.86544 -66.68214,-38.44826 -66.68214,-39.07293 0,-1.52165 29.76729,-49.72804 31.2868,-50.66714 l 1.19291,-0.73726 3.51014,2.04031 c 1.93058,1.12217 40.30498,24.80082 85.27643,52.61923 l 81.76629,50.57892 -0.26629,26.08803 -0.26628,26.08802 -84,52.23269 c -46.2,28.72798 -84.72417,52.24048 -85.60927,52.25 l -1.60926,0.0173 z"
         id="path32" /><path
         style="fill:#573f3f"
         d="m 535.06517,-481.85704 -1.57143,-1.57143 0.0153,-26.17857 c 0.008,-14.39821 0.37372,-26.74307 0.81177,-27.43302 l 0.79645,-1.25444 109.43823,0.25444 109.43824,0.25445 0.26699,27.5 0.267,27.5 -1.70812,1.25 -1.70813,1.25 H 643.87403 536.63659 Z m 214.82158,-4.01036 c 0.9059,-2.36075 0.70352,-45.71793 -0.22019,-47.17282 l -0.79656,-1.25461 -105.43813,0.25461 -105.43813,0.25461 -0.269,23.47931 c -0.14794,12.91362 -0.0496,24.05112 0.21862,24.75 l 0.48761,1.27069 h 105.42439 105.4244 z M 385.13447,-591.84329 c -8.6024,-12.95672 -15.64073,-23.91198 -15.64073,-24.34501 0,-1.57144 4.31523,-4.23926 53.5,-33.07558 27.5,-16.12285 57.61961,-33.81281 66.93247,-39.31103 l 16.93248,-9.99676 -2.00033,-1.60697 c -1.10018,-0.88383 -32.0073,-18.6787 -68.68248,-39.54415 -36.67518,-20.86544 -66.68214,-38.44826 -66.68214,-39.07293 0,-1.52165 29.76729,-49.72804 31.2868,-50.66714 l 1.19291,-0.73726 3.51014,2.04031 c 1.93058,1.12217 40.30498,24.80082 85.27643,52.61923 l 81.76629,50.57892 -0.26629,26.08803 -0.26628,26.08802 -84,52.23269 c -46.2,28.72798 -84.72417,52.24048 -85.60927,52.25 l -1.60926,0.0173 z m 101.98407,-33.31188 81.8752,-50.86956 0.26863,-22.57361 0.26863,-22.57361 -1.26863,-1.0985 c -0.69775,-0.60417 -38.06794,-23.85004 -83.04487,-51.65749 l -81.77624,-50.559 -1.39458,1.15739 c -2.47941,2.05773 -26.74175,42.11029 -26.25797,43.34697 0.25754,0.65833 31.35662,18.74697 69.10907,40.19697 l 68.64082,39 -0.27243,1.86774 -0.27243,1.86774 -68.5,40.25724 -68.5,40.25724 v 1.47312 c 0,0.81022 5.85,10.30607 13,21.10191 l 13,19.62878 1.6248,0.0231 c 0.89364,0.0127 38.46864,-22.86819 83.5,-50.84645 z"
         id="path31" /></g></g></svg>
